<svg xmlns="http://www.w3.org/2000/svg" width="18" height="19" viewBox="0 0 18 19" fill="none">
  <path d="M6.75122 12.7945H4.20452C3.2607 12.7945 2.78879 12.7945 2.68951 12.7212C2.57795 12.6389 2.5507 12.5903 2.53862 12.4522C2.52787 12.3293 2.8171 11.856 3.39558 10.9095C3.99284 9.93218 4.49998 8.50919 4.49998 6.49453C4.49998 5.38062 4.97409 4.31233 5.818 3.52468C6.66192 2.73702 7.80651 2.29453 8.99998 2.29453C10.1935 2.29453 11.3381 2.73702 12.182 3.52468C13.0259 4.31233 13.5 5.38062 13.5 6.49453C13.5 8.50919 14.0071 9.93218 14.6044 10.9095C15.1829 11.856 15.4721 12.3293 15.4614 12.4522C15.4493 12.5903 15.422 12.6389 15.3105 12.7212C15.2112 12.7945 14.7393 12.7945 13.7954 12.7945H11.25M6.75122 12.7945L6.74998 13.5445C6.74998 14.7872 7.75734 15.7945 8.99998 15.7945C10.2426 15.7945 11.25 14.7872 11.25 13.5445V12.7945M6.75122 12.7945H11.25" stroke="#2D3134" stroke-width="1.5" stroke-linecap="round" stroke-linejoin="round"/>
</svg>