<svg xmlns="http://www.w3.org/2000/svg" width="37" height="38" viewBox="0 0 37 38" fill="none">
  <path d="M32.5137 11.2608C31.2033 9.81168 29.0141 9.08709 25.8383 9.08709H25.4683V9.02543C25.4683 6.43543 25.4683 3.22876 19.6716 3.22876H17.3283C11.5316 3.22876 11.5316 6.45084 11.5316 9.02543V9.10251H11.1616C7.97039 9.10251 5.79664 9.82709 4.48623 11.2763C2.95998 12.9721 3.00623 15.2538 3.16039 16.8108L3.17581 16.9188L3.30743 18.3008C3.3217 18.4506 3.40218 18.5857 3.52789 18.6683C3.87251 18.895 4.5851 19.3581 4.99498 19.5858C5.21081 19.7246 5.44206 19.8479 5.67331 19.9713C8.30956 21.4204 11.2079 22.3917 14.1525 22.8696C14.2912 24.3188 14.9233 26.0146 18.2996 26.0146C21.6758 26.0146 22.3387 24.3342 22.4466 22.8388C25.5916 22.33 28.6287 21.2354 31.3729 19.6321C31.4654 19.5858 31.5271 19.5396 31.6041 19.4933C32.2497 19.1284 32.9209 18.6741 33.5245 18.235C33.6372 18.1531 33.7096 18.0271 33.725 17.8886L33.7625 17.5508L33.8396 16.8263C33.855 16.7338 33.855 16.6567 33.8704 16.5488C33.9937 14.9917 33.9629 12.8642 32.5137 11.2608ZM20.1804 21.8213C20.1804 23.4554 20.1804 23.7021 18.2841 23.7021C16.3879 23.7021 16.3879 23.4092 16.3879 21.8367V19.8942H20.1804V21.8213ZM13.7362 9.08709V9.02543C13.7362 6.40459 13.7362 5.43334 17.3283 5.43334H19.6716C23.2637 5.43334 23.2637 6.42001 23.2637 9.02543V9.10251H13.7362V9.08709Z" fill="#F79423"/>
  <path d="M32.6182 21.4637C32.971 21.2937 33.3776 21.5737 33.3422 21.9637L32.745 28.5429C32.4212 31.6262 31.1571 34.7712 24.3737 34.7712H12.6262C5.8429 34.7712 4.57873 31.6262 4.25498 28.5583L3.68677 22.308C3.65173 21.9225 4.04831 21.6425 4.40022 21.8036C6.03618 22.5527 9.81367 24.2298 11.9755 24.7658C12.1404 24.8066 12.2755 24.9244 12.3432 25.0802C13.25 27.1682 15.3041 28.2808 18.2996 28.2808C21.2654 28.2808 23.3469 27.1254 24.2558 25.0342C24.3236 24.8783 24.4585 24.7606 24.6235 24.7196C26.9143 24.1506 30.9147 22.2843 32.6182 21.4637Z" fill="#F79423"/>
</svg>