<svg xmlns="http://www.w3.org/2000/svg" width="49" height="52" viewBox="0 0 49 52" fill="none">
  <rect x="21.8636" y="51.0891" width="30.9199" height="30.9199" rx="9.66422" transform="rotate(-135 21.8636 51.0891)" fill="#89EDBD"/>
  <rect x="37.0179" y="0.517365" width="31.8915" height="31.8915" rx="9.96792" transform="rotate(74.9344 37.0179 0.517365)" fill="#DBEDFB"/>
  <path d="M21.0489 6.20337C26.7963 3.2664 33.7985 5.10674 37.3349 10.506C38.4422 12.1965 39.5179 13.9101 40.3917 15.4385C41.1383 16.7443 41.9329 18.2567 42.7079 19.7979C45.5742 25.4978 43.7311 32.408 38.4024 35.9164C36.9848 36.8497 35.5662 37.7476 34.288 38.4941C32.7374 39.3997 30.9092 40.3653 29.0681 41.2917C23.3168 44.1855 16.3483 42.2857 12.8457 36.8835C11.9868 35.5587 11.1619 34.2417 10.4652 33.0516C9.55075 31.4896 8.5683 29.6525 7.62138 27.8032C4.65587 22.0115 6.54056 14.952 12.0043 11.4185C13.5191 10.4388 15.0373 9.49258 16.3991 8.70631C17.7903 7.90314 19.4075 7.04218 21.0489 6.20337Z" fill="white"/>
  <path d="M20.9179 8.63911C26.6606 5.69306 33.6681 7.53466 37.1955 12.9397C38.229 14.5233 39.2277 16.1196 40.0455 17.55C40.7394 18.7637 41.4757 20.1599 42.1976 21.5894C45.0739 27.2842 43.2294 34.2003 37.8944 37.6991C36.5782 38.5623 35.2673 39.3892 34.0803 40.0824C32.6277 40.9308 30.9258 41.833 29.2025 42.7037C23.4561 45.6071 16.482 43.7062 12.9886 38.2981C12.1983 37.0746 11.4421 35.8635 10.7981 34.7635C9.94171 33.3005 9.02423 31.5907 8.13477 29.86C5.16048 24.0728 7.04632 17.0081 12.5157 13.4835C13.925 12.5753 15.3304 11.7021 16.5974 10.9706C17.8937 10.2222 19.3908 9.42248 20.9179 8.63911Z" fill="#485D70"/>
</svg>