<svg xmlns="http://www.w3.org/2000/svg" width="37" height="38" viewBox="0 0 37 38" fill="none">
  <path d="M32.7604 28.9746L30.2167 29.5758C29.6463 29.7146 29.1992 30.1463 29.0758 30.7167L28.5363 32.9829C28.2433 34.2163 26.6708 34.6017 25.8538 33.6304L21.2442 28.3271C20.8742 27.8954 21.0746 27.2171 21.6296 27.0783C24.3583 26.4154 26.8096 24.8892 28.6133 22.7154C28.9063 22.3608 29.4304 22.3146 29.7542 22.6383L33.1767 26.0608C34.3483 27.2325 33.9321 28.6971 32.7604 28.9746Z" fill="#44C989"/>
  <path d="M4.16251 28.9746L6.70626 29.5758C7.27667 29.7146 7.72376 30.1463 7.84709 30.7167L8.38667 32.9829C8.67959 34.2163 10.2521 34.6017 11.0692 33.6304L15.6788 28.3271C16.0488 27.8954 15.8483 27.2171 15.2933 27.0783C12.5646 26.4154 10.1133 24.8892 8.30959 22.7154C8.01667 22.3608 7.49251 22.3146 7.16876 22.6383L3.74626 26.0608C2.57459 27.2325 2.99084 28.6971 4.16251 28.9746Z" fill="#44C989"/>
  <path d="M18.5 3.58334C12.5337 3.58334 7.70831 8.40876 7.70831 14.375C7.70831 16.6104 8.37123 18.6608 9.51206 20.3721C11.1771 22.8388 13.8133 24.5808 16.8812 25.0279C17.4054 25.1204 17.945 25.1667 18.5 25.1667C19.055 25.1667 19.5946 25.1204 20.1187 25.0279C23.1866 24.5808 25.8229 22.8388 27.4879 20.3721C28.6287 18.6608 29.2916 16.6104 29.2916 14.375C29.2916 8.40876 24.4662 3.58334 18.5 3.58334ZM23.2175 14.0358L21.9379 15.3154C21.7221 15.5313 21.5987 15.9475 21.6758 16.2558L22.0458 17.8438C22.3387 19.0925 21.6758 19.5858 20.5658 18.9229L19.0241 18.0133C18.7466 17.8438 18.2841 17.8438 18.0066 18.0133L16.465 18.9229C15.355 19.5704 14.6921 19.0925 14.985 17.8438L15.355 16.2558C15.4166 15.9629 15.3087 15.5313 15.0929 15.3154L13.7825 14.0358C13.0271 13.2804 13.2737 12.525 14.3221 12.3554L15.9716 12.0779C16.2491 12.0317 16.5729 11.785 16.6962 11.5383L17.6058 9.71918C18.0991 8.73251 18.9008 8.73251 19.3941 9.71918L20.3037 11.5383C20.4271 11.785 20.7508 12.0317 21.0437 12.0779L22.6933 12.3554C23.7262 12.525 23.9729 13.2804 23.2175 14.0358Z" fill="#44C989"/>
</svg>