<svg width="15" height="14" viewBox="0 0 15 14" fill="none" xmlns="http://www.w3.org/2000/svg">
<path d="M10.3149 0.333313H4.72819C2.30152 0.333313 0.854858 1.77998 0.854858 4.20665V9.79331C0.854858 10.52 0.981525 11.1533 1.22819 11.6866C1.80153 12.9533 3.02819 13.6666 4.72819 13.6666H10.3149C12.7415 13.6666 14.1882 12.22 14.1882 9.79331V8.26665V4.20665C14.1882 1.77998 12.7415 0.333313 10.3149 0.333313ZM13.1015 7.33331C12.5815 6.88665 11.7415 6.88665 11.2215 7.33331L8.44819 9.71331C7.92819 10.16 7.08819 10.16 6.56819 9.71331L6.34153 9.52665C5.86819 9.11331 5.11486 9.07331 4.58153 9.43331L2.08819 11.1066C1.94152 10.7333 1.85486 10.3 1.85486 9.79331V4.20665C1.85486 2.32665 2.84819 1.33331 4.72819 1.33331H10.3149C12.1949 1.33331 13.1882 2.32665 13.1882 4.20665V7.40665L13.1015 7.33331Z" fill="#1F262B"/>
</svg>
