<svg xmlns="http://www.w3.org/2000/svg" width="37" height="38" viewBox="0 0 37 38" fill="none">
  <path d="M28.9988 10.1354H31.0954C30.8025 9.71917 30.4942 9.33375 30.1704 8.94833L28.9988 10.1354Z" fill="#F80042"/>
  <path d="M28.5516 7.31416C28.1662 6.99041 27.7808 6.68208 27.3646 6.38916V8.48583L28.5516 7.31416Z" fill="#F80042"/>
  <path d="M30.1859 8.94833L34.7338 4.40042C35.1809 3.95333 35.1809 3.21333 34.7338 2.76625C34.2867 2.31917 33.5467 2.31917 33.0996 2.76625L28.5517 7.31417C29.1375 7.82292 29.6771 8.37792 30.1859 8.94833Z" fill="#F80042"/>
  <path d="M27.3646 5.125C27.3646 4.49292 26.8404 3.96875 26.2083 3.96875C25.5917 3.96875 25.0983 4.46208 25.0675 5.06333C25.8692 5.44875 26.64 5.88042 27.3646 6.38917V5.125Z" fill="#F80042"/>
  <path d="M33.5312 11.2917C33.5312 10.6596 33.0071 10.1354 32.375 10.1354H31.0954C31.6041 10.86 32.0512 11.6308 32.4212 12.4325C33.0379 12.4017 33.5312 11.9083 33.5312 11.2917Z" fill="#F80042"/>
  <path d="M19.6562 23.2396H20.1188C20.72 23.2396 21.1979 22.7 21.1979 22.0371C21.1979 21.2046 20.9667 21.0812 20.4425 20.8962L19.6562 20.6187V23.2396Z" fill="#F80042"/>
  <path d="M32.4366 12.4325C32.4212 12.4325 32.4058 12.4479 32.375 12.4479H26.2083C26.0541 12.4479 25.9154 12.4171 25.7612 12.3554C25.4837 12.2321 25.2525 12.0163 25.1291 11.7233C25.0829 11.5846 25.0521 11.4458 25.0521 11.2917V5.12501C25.0521 5.10959 25.0675 5.09418 25.0675 5.06334C23.0633 4.12293 20.8433 3.58334 18.5 3.58334C9.98998 3.58334 3.08331 10.49 3.08331 19C3.08331 27.51 9.98998 34.4167 18.5 34.4167C27.01 34.4167 33.9166 27.51 33.9166 19C33.9166 16.6567 33.3771 14.4367 32.4366 12.4325ZM21.1979 18.7225C22.1846 19.0617 23.5104 19.7863 23.5104 22.0525C23.5104 23.9796 21.9841 25.5675 20.1187 25.5675H19.6562V25.9529C19.6562 26.585 19.1321 27.1092 18.5 27.1092C17.8679 27.1092 17.3437 26.585 17.3437 25.9529V25.5675H17.2204C15.17 25.5675 13.4896 23.8408 13.4896 21.7133C13.4896 21.0658 14.0137 20.5417 14.6458 20.5417C15.2779 20.5417 15.8021 21.0658 15.8021 21.6979C15.8021 22.5458 16.4341 23.2396 17.2204 23.2396H17.3437V19.8171L15.8021 19.2775C14.8154 18.9383 13.4896 18.2138 13.4896 15.9475C13.4896 14.0204 15.0158 12.4325 16.8812 12.4325H17.3437V12.0625C17.3437 11.4304 17.8679 10.9063 18.5 10.9063C19.1321 10.9063 19.6562 11.4304 19.6562 12.0625V12.4479H19.7796C21.83 12.4479 23.5104 14.1746 23.5104 16.3021C23.5104 16.9342 22.9862 17.4583 22.3541 17.4583C21.7221 17.4583 21.1979 16.9342 21.1979 16.3021C21.1979 15.4542 20.5658 14.7604 19.7796 14.7604H19.6562V18.1829L21.1979 18.7225Z" fill="#F80042"/>
  <path d="M15.8021 15.9629C15.8021 16.7954 16.0333 16.9187 16.5575 17.1037L17.3437 17.3812V14.7604H16.8812C16.2954 14.7604 15.8021 15.3 15.8021 15.9629Z" fill="#F80042"/>
</svg>