<svg xmlns="http://www.w3.org/2000/svg" width="37" height="38" viewBox="0 0 37 38" fill="none">
  <path d="M15.8021 15.9629C15.8021 16.7954 16.0333 16.9187 16.5575 17.1037L17.3438 17.3812V14.7604H16.8813C16.2954 14.7604 15.8021 15.3 15.8021 15.9629Z" fill="#0094FF"/>
  <path d="M19.6562 23.2396H20.1188C20.72 23.2396 21.1979 22.7 21.1979 22.0371C21.1979 21.2046 20.9667 21.0812 20.4425 20.8962L19.6562 20.6187V23.2396Z" fill="#0094FF"/>
  <path d="M30.1858 8.94834L27.0254 12.1088C26.7942 12.34 26.5013 12.4479 26.2083 12.4479C25.9154 12.4479 25.6225 12.34 25.3913 12.1088C24.9442 11.6617 24.9442 10.9217 25.3913 10.4746L28.5517 7.31418C25.8383 5.00168 22.3388 3.58334 18.5 3.58334C9.99001 3.58334 3.08334 10.49 3.08334 19C3.08334 27.51 9.99001 34.4167 18.5 34.4167C27.01 34.4167 33.9167 27.51 33.9167 19C33.9167 15.1613 32.4983 11.6617 30.1858 8.94834ZM21.1979 18.7225C22.1846 19.0771 23.5104 19.7863 23.5104 22.0525C23.5104 23.9796 21.9842 25.5675 20.1188 25.5675H19.6563V25.9529C19.6563 26.585 19.1321 27.1092 18.5 27.1092C17.8679 27.1092 17.3438 26.585 17.3438 25.9529V25.5675H17.2204C15.17 25.5675 13.4896 23.8408 13.4896 21.7133C13.4896 21.0658 14.0138 20.5417 14.6458 20.5417C15.2779 20.5417 15.8021 21.0658 15.8021 21.6979C15.8021 22.5458 16.4342 23.2396 17.2204 23.2396H17.3438V19.8171L15.8021 19.2775C14.8154 18.9229 13.4896 18.2138 13.4896 15.9475C13.4896 14.0204 15.0158 12.4325 16.8813 12.4325H17.3438V12.0625C17.3438 11.4304 17.8679 10.9063 18.5 10.9063C19.1321 10.9063 19.6563 11.4304 19.6563 12.0625V12.4479H19.7796C21.83 12.4479 23.5104 14.1746 23.5104 16.3021C23.5104 16.9342 22.9863 17.4583 22.3542 17.4583C21.7221 17.4583 21.1979 16.9342 21.1979 16.3021C21.1979 15.4542 20.5658 14.7604 19.7796 14.7604H19.6563V18.1829L21.1979 18.7225Z" fill="#0094FF"/>
  <path d="M34.9804 3.13626C34.8571 2.85876 34.6413 2.62751 34.3483 2.50418C34.2096 2.45793 34.0708 2.42709 33.9167 2.42709H27.75C27.1179 2.42709 26.5938 2.95126 26.5938 3.58334C26.5938 4.21543 27.1179 4.73959 27.75 4.73959H31.1263L28.5517 7.31418C29.1375 7.82293 29.6771 8.36251 30.1858 8.94834L32.7604 6.37376V9.75001C32.7604 10.3821 33.2846 10.9063 33.9167 10.9063C34.5488 10.9063 35.0729 10.3821 35.0729 9.75001V3.58334C35.0729 3.42918 35.0421 3.29043 34.9804 3.13626Z" fill="#0094FF"/>
</svg>