<svg xmlns="http://www.w3.org/2000/svg" width="18" height="19" viewBox="0 0 18 19" fill="none">
  <path d="M11.25 3.79453V6.79453M11.25 6.79453L14.25 6.79452M11.25 6.79453L15.75 2.29453M13.875 15.7945C7.45469 15.7945 2.25 10.5898 2.25 4.16953C2.25 3.87986 2.26059 3.59267 2.28142 3.30832C2.30531 2.98199 2.31726 2.81882 2.40278 2.6703C2.4736 2.54729 2.59913 2.43062 2.72698 2.36896C2.88136 2.29453 3.06141 2.29453 3.42151 2.29453H5.53449C5.83731 2.29453 5.98872 2.29453 6.11852 2.34436C6.23317 2.38839 6.33526 2.45989 6.41581 2.5526C6.50701 2.65755 6.55875 2.79985 6.66224 3.08443L7.53683 5.48956C7.65723 5.82067 7.71744 5.98623 7.70722 6.1433C7.6982 6.2818 7.65094 6.41509 7.57067 6.52832C7.47965 6.65674 7.32859 6.74737 7.02647 6.92864L6 7.54453C6.90142 9.53118 8.5126 11.1445 10.5 12.0445L11.1159 11.0181C11.2972 10.7159 11.3878 10.5649 11.5162 10.4739C11.6294 10.3936 11.7627 10.3463 11.9012 10.3373C12.0583 10.3271 12.2239 10.3873 12.555 10.5077L14.9601 11.3823C15.2447 11.4858 15.387 11.5375 15.4919 11.6287C15.5846 11.7093 15.6561 11.8114 15.7002 11.926C15.75 12.0558 15.75 12.2072 15.75 12.51V14.623C15.75 14.9831 15.75 15.1632 15.6756 15.3175C15.6139 15.4454 15.4972 15.5709 15.3742 15.6417C15.2257 15.7273 15.0625 15.7392 14.7362 15.7631C14.4519 15.7839 14.1647 15.7945 13.875 15.7945Z" stroke="#0094FF" stroke-width="1.2" stroke-linecap="round" stroke-linejoin="round"/>
</svg>