<svg width="17" height="16" viewBox="0 0 17 16" fill="none" xmlns="http://www.w3.org/2000/svg">
<path d="M11.1012 1.33331H5.76788C3.10122 1.33331 1.76788 2.66665 1.76788 5.33331V14C1.76788 14.3666 2.06788 14.6666 2.43455 14.6666H11.1012C13.7679 14.6666 15.1012 13.3333 15.1012 10.6666V5.33331C15.1012 2.66665 13.7679 1.33331 11.1012 1.33331ZM9.76788 10.1666H5.10122C4.82788 10.1666 4.60122 9.93998 4.60122 9.66665C4.60122 9.39331 4.82788 9.16665 5.10122 9.16665H9.76788C10.0412 9.16665 10.2679 9.39331 10.2679 9.66665C10.2679 9.93998 10.0412 10.1666 9.76788 10.1666ZM11.7679 6.83331H5.10122C4.82788 6.83331 4.60122 6.60665 4.60122 6.33331C4.60122 6.05998 4.82788 5.83331 5.10122 5.83331H11.7679C12.0412 5.83331 12.2679 6.05998 12.2679 6.33331C12.2679 6.60665 12.0412 6.83331 11.7679 6.83331Z" fill="#FF6200"/>
</svg>
