<svg xmlns="http://www.w3.org/2000/svg" width="20" height="20" viewBox="0 0 20 20" fill="none">
  <path d="M9.55833 6.37785L13.5167 6.37827M9.55833 9.54452L13.5167 9.54492M9.55833 12.7112L13.5167 12.7116M7.18333 12.7112H7.19125M7.18333 9.54452H7.19125M7.18333 6.37785H7.19125M6.55 3.21118H14.15C15.0367 3.21118 15.4801 3.21118 15.8188 3.38375C16.1167 3.53555 16.359 3.77777 16.5108 4.0757C16.6833 4.41439 16.6833 4.85777 16.6833 5.74452V13.3445C16.6833 14.2313 16.6833 14.6746 16.5108 15.0133C16.359 15.3113 16.1167 15.5535 15.8188 15.7053C15.4801 15.8778 15.0367 15.8778 14.15 15.8778H6.55C5.66325 15.8778 5.21987 15.8778 4.88118 15.7053C4.58325 15.5535 4.34104 15.3113 4.18924 15.0133C4.01666 14.6746 4.01666 14.2313 4.01666 13.3445V5.74451C4.01666 4.85777 4.01666 4.41439 4.18924 4.0757C4.34104 3.77777 4.58325 3.53555 4.88118 3.38375C5.21987 3.21118 5.66325 3.21118 6.55 3.21118Z" stroke="#0094FF" stroke-linecap="round" stroke-linejoin="round"/>
</svg>