<svg xmlns="http://www.w3.org/2000/svg" width="15" height="15" viewBox="0 0 15 15" fill="none">
  <path d="M6.97497 12.1528V2.93618C6.97497 2.06118 6.60163 1.71118 5.67413 1.71118H3.31747C2.38997 1.71118 2.01663 2.06118 2.01663 2.93618V12.1528C2.01663 13.0278 2.38997 13.3778 3.31747 13.3778H5.67413C6.60163 13.3778 6.97497 13.0278 6.97497 12.1528Z" stroke="#0094FF" stroke-linecap="round" stroke-linejoin="round"/>
  <path d="M13.6833 5.51452V2.86618C13.6833 2.04368 13.31 1.71118 12.3825 1.71118H10.0258C9.09831 1.71118 8.72498 2.04368 8.72498 2.86618V5.50868C8.72498 6.33702 9.09831 6.66368 10.0258 6.66368H12.3825C13.31 6.66952 13.6833 6.33702 13.6833 5.51452Z" stroke="#0094FF" stroke-linecap="round" stroke-linejoin="round"/>
  <path d="M13.6833 12.077V9.72036C13.6833 8.79286 13.31 8.41953 12.3825 8.41953H10.0258C9.09831 8.41953 8.72498 8.79286 8.72498 9.72036V12.077C8.72498 13.0045 9.09831 13.3779 10.0258 13.3779H12.3825C13.31 13.3779 13.6833 13.0045 13.6833 12.077Z" stroke="#0094FF" stroke-linecap="round" stroke-linejoin="round"/>
</svg>