<svg xmlns="http://www.w3.org/2000/svg" width="22" height="23" viewBox="0 0 22 23" fill="none">
  <path d="M18.2118 17.349L13.8325 12.9697C14.6808 11.9219 15.1915 10.5904 15.1915 9.14029C15.1915 5.77928 12.4567 3.04453 9.09574 3.04453C5.73473 3.04453 3 5.77925 3 9.14026C3 12.5013 5.73476 15.236 9.09577 15.236C10.5459 15.236 11.8774 14.7253 12.9252 13.877L17.3045 18.2563C17.4296 18.3814 17.5939 18.4443 17.7582 18.4443C17.9224 18.4443 18.0867 18.3814 18.2118 18.2563C18.4627 18.0054 18.4627 17.5999 18.2118 17.349ZM9.09577 13.9527C6.44186 13.9527 4.28333 11.7942 4.28333 9.14026C4.28333 6.48635 6.44186 4.32782 9.09577 4.32782C11.7497 4.32782 13.9082 6.48635 13.9082 9.14026C13.9082 11.7942 11.7496 13.9527 9.09577 13.9527Z" fill="#2D3134"/>
</svg>