<svg xmlns="http://www.w3.org/2000/svg" width="18" height="18" viewBox="0 0 18 18" fill="none">
  <path d="M11.475 8.54452C11.475 9.71813 10.5236 10.6695 9.34998 10.6695C8.17637 10.6695 7.22498 9.71813 7.22498 8.54452C7.22498 7.37092 8.17637 6.41953 9.34998 6.41953C10.5236 6.41953 11.475 7.37092 11.475 8.54452Z" stroke="#0094FF" stroke-width="1.41667" stroke-linecap="round" stroke-linejoin="round"/>
  <path d="M9.99074 2.21206C9.84497 2.16953 9.67997 2.16953 9.34998 2.16953C9.01998 2.16953 8.85498 2.16953 8.70921 2.21206C8.49585 2.27431 8.30738 2.40191 8.17034 2.57689C8.07671 2.69644 8.01543 2.84964 7.89287 3.15603C7.7167 3.59647 7.22776 3.82328 6.77772 3.67332L6.37341 3.5386C6.08661 3.443 5.94321 3.3952 5.80262 3.38701C5.59609 3.37498 5.39054 3.4235 5.21119 3.52662C5.0891 3.59683 4.98222 3.70371 4.76845 3.91748C4.54125 4.14467 4.42765 4.25827 4.35549 4.38794C4.24946 4.57845 4.20461 4.79697 4.22702 5.01384C4.24227 5.16146 4.30193 5.31062 4.42126 5.60895C4.60814 6.07615 4.42836 6.60991 3.9969 6.86884L3.80033 6.98681C3.49936 7.16739 3.34888 7.25768 3.23957 7.382C3.14284 7.49201 3.0699 7.62083 3.02533 7.76038C2.97498 7.91807 2.97498 8.09531 2.97498 8.4498C2.97498 8.86955 2.97498 9.07942 3.042 9.25907C3.10122 9.41781 3.19755 9.56008 3.32294 9.67402C3.46484 9.80297 3.65777 9.88014 4.04361 10.0345C4.43792 10.1922 4.64095 10.6299 4.50665 11.0328L4.35425 11.49C4.24869 11.8067 4.19591 11.965 4.19111 12.1206C4.18534 12.3077 4.22907 12.4929 4.31788 12.6576C4.39175 12.7946 4.50978 12.9127 4.74581 13.1487C4.98185 13.3847 5.09987 13.5027 5.23686 13.5766C5.40158 13.6654 5.58684 13.7092 5.77388 13.7034C5.92945 13.6986 6.08779 13.6458 6.40447 13.5402L6.77775 13.4158C7.22776 13.2658 7.7167 13.4926 7.89287 13.933C8.01543 14.2394 8.07671 14.3926 8.17034 14.5122C8.30738 14.6871 8.49585 14.8147 8.70921 14.877C8.85498 14.9195 9.01998 14.9195 9.34998 14.9195C9.67997 14.9195 9.84497 14.9195 9.99074 14.877C10.2041 14.8147 10.3926 14.6871 10.5296 14.5122C10.6232 14.3926 10.6845 14.2394 10.8071 13.933C10.9832 13.4926 11.4722 13.2659 11.9222 13.4159L12.2952 13.5403C12.6119 13.6459 12.7702 13.6986 12.9258 13.7034C13.1128 13.7092 13.2981 13.6655 13.4628 13.5767C13.5998 13.5028 13.7178 13.3848 13.9538 13.1487C14.1899 12.9127 14.3079 12.7947 14.3818 12.6577C14.4706 12.493 14.5143 12.3077 14.5085 12.1207C14.5037 11.9651 14.451 11.8067 14.3454 11.4901L14.1931 11.0332C14.0588 10.6301 14.2619 10.1922 14.6563 10.0345C15.0422 9.88014 15.2351 9.80297 15.377 9.67402C15.5024 9.56008 15.5987 9.41781 15.658 9.25907C15.725 9.07942 15.725 8.86955 15.725 8.4498C15.725 8.09531 15.725 7.91807 15.6746 7.76038C15.6301 7.62083 15.5571 7.49201 15.4604 7.382C15.3511 7.25768 15.2006 7.16739 14.8996 6.98681L14.7028 6.86872C14.2713 6.60984 14.0915 6.07608 14.2784 5.60889C14.3977 5.31058 14.4574 5.1614 14.4726 5.01379C14.4951 4.79692 14.4502 4.5784 14.3442 4.38789C14.272 4.25822 14.1584 4.14462 13.9312 3.91742C13.7174 3.70366 13.6106 3.59677 13.4885 3.52657C13.3091 3.42345 13.1036 3.37492 12.897 3.38695C12.7564 3.39514 12.613 3.44294 12.3263 3.53854L11.9222 3.67323C11.4722 3.82323 10.9832 3.59646 10.8071 3.15603C10.6845 2.84964 10.6232 2.69644 10.5296 2.57689C10.3926 2.40191 10.2041 2.27431 9.99074 2.21206Z" stroke="#0094FF" stroke-width="1.41667" stroke-linecap="round" stroke-linejoin="round"/>
</svg>